<?xml version="1.0" encoding="utf-8"?>
<!-- Generator: Adobe Illustrator 19.2.1, SVG Export Plug-In . SVG Version: 6.00 Build 0)  -->
<svg version="1.1" id="Layer_1" xmlns="http://www.w3.org/2000/svg" xmlns:xlink="http://www.w3.org/1999/xlink" x="0px" y="0px"
	 viewBox="0 0 166.1471 12.2528" enable-background="new 0 0 166.1471 12.2528" xml:space="preserve">
<g>
	<path fill="#FFFFFF" d="M10.6369,10.4855c-1.2118,1.2117-2.7602,1.7504-4.4265,1.7504C1.9524,12.2359,0,9.2906,0,6.1937
		c0-3.0968,1.9861-6.1769,6.2105-6.1769c1.5989,0,3.0969,0.5723,4.3086,1.7841L9.2568,3.0127
		C8.3985,2.188,7.3045,1.801,6.2105,1.801c-3.0127,0-4.3422,2.2048-4.3422,4.3759c0,2.1543,1.3127,4.2918,4.3422,4.2918
		c1.094,0,2.3058-0.4544,3.1305-1.2791L10.6369,10.4855z"/>
	<path fill="#FFFFFF" d="M23.5794,6.16c0,3.1809-1.9355,6.0928-6.0254,6.0928s-6.0254-2.979-6.0254-6.0759
		C11.5287,2.5919,14.0365,0,17.5877,0C21.6102,0,23.5794,2.9791,23.5794,6.16z M17.5541,10.5192
		c2.9286,0,4.1571-2.0869,4.1571-4.3255c0-2.1712-1.2286-4.4265-4.1234-4.477c-2.7434,0-4.1908,1.9019-4.1908,4.477
		C13.4474,8.2807,14.6255,10.5192,17.5541,10.5192z"/>
	<path fill="#FFFFFF" d="M36.0674,2.9791L32.0617,8.55h-0.4039l-3.9552-5.5709v9.038h-1.8851V0.2356h2.188l3.8879,5.5205
		l3.871-5.5205h2.188v11.7815h-1.8851V2.9791z"/>
	<path fill="#FFFFFF" d="M51.164,2.9791L47.1583,8.55h-0.4039l-3.9552-5.5709v9.038h-1.8851V0.2356h2.188l3.8879,5.5205
		l3.871-5.5205h2.188v11.7815H51.164V2.9791z"/>
	<path fill="#FFFFFF" d="M64.1735,9.5261h-6.3787l-1.1109,2.4742h-2.0028l5.2848-11.7815h2.0532l5.2848,11.7815h-2.0028
		L64.1735,9.5261z M60.9925,2.2049l-2.4909,5.6045h4.9819L60.9925,2.2049z"/>
	<path fill="#FFFFFF" d="M77.0654,8.6005V0.2188h1.885v11.7815h-1.4305l-6.6818-8.3144v8.3144h-1.9019V0.2188h1.4475L77.0654,8.6005
		z"/>
	<path fill="#FFFFFF" d="M86.3723,0.2188c4.0227,0,5.8571,2.8781,5.9076,5.7898c0.0505,2.979-1.7673,5.9917-5.9076,5.9917h-4.4601
		V0.2188H86.3723z M83.7804,10.1825h2.5919c2.8781,0,4.0898-2.1206,4.0395-4.1907c-0.0505-1.9692-1.2791-3.972-4.0395-3.972h-2.5919
		V10.1825z"/>
	<path fill="#FFFFFF" d="M108.6387,10.4855c-1.2117,1.2117-2.7602,1.7504-4.4264,1.7504c-4.2583,0-6.2107-2.9453-6.2107-6.0422
		c0-3.0968,1.9861-6.1769,6.2107-6.1769c1.5988,0,3.0967,0.5723,4.3086,1.7841l-1.2623,1.2117
		c-0.8584-0.8247-1.9524-1.2117-3.0464-1.2117c-3.0127,0-4.3423,2.2048-4.3423,4.3759c0,2.1543,1.3128,4.2918,4.3423,4.2918
		c1.094,0,2.3057-0.4544,3.1304-1.2791L108.6387,10.4855z"/>
	<path fill="#FFFFFF" d="M119.2585,12.0003h-8.7015V0.2188h8.651v1.8345h-6.766v3.181h6.4967v1.7504h-6.4967v3.1642h6.8165V12.0003z
		"/>
	<path fill="#FFFFFF" d="M129.8109,8.6005V0.2188h1.8852v11.7815h-1.4307l-6.6818-8.3144v8.3144h-1.9018V0.2188h1.4474
		L129.8109,8.6005z"/>
	<path fill="#FFFFFF" d="M137.3339,1.9188h-3.871v-1.7h9.6271v1.7h-3.8542v10.0815h-1.9018V1.9188z"/>
	<path fill="#FFFFFF" d="M153.5581,12.0003h-8.7015V0.2188h8.651v1.8345h-6.766v3.181h6.4967v1.7504h-6.4967v3.1642h6.8165V12.0003z
		"/>
	<path fill="#FFFFFF" d="M166.1471,12.0003h-2.2049l-3.5848-4.073h-2.4911v4.073h-1.885V0.2021
		c1.8346,0,3.6522,0.0167,5.4869,0.0167c2.7265,0,4.157,1.8682,4.157,3.8543c0,1.6662-0.8752,3.3492-3.1978,3.6691l3.5177,3.9216
		L166.1471,12.0003z M157.8664,1.9355v4.2751h3.5851c1.5485,0,2.2552-0.9762,2.2552-2.1039c0-1.0603-0.6901-2.1712-2.2384-2.1712
		H157.8664z"/>
</g>
</svg>
