<?xml version="1.0" encoding="utf-8"?>
<!-- Generator: Adobe Illustrator 19.2.1, SVG Export Plug-In . SVG Version: 6.00 Build 0)  -->
<svg version="1.1" id="Layer_1" xmlns="http://www.w3.org/2000/svg" xmlns:xlink="http://www.w3.org/1999/xlink" x="0px" y="0px"
	 viewBox="0 0 104.4 20" style="enable-background:new 0 0 104.4 20;" xml:space="preserve">
<style type="text/css">
	.st0{fill:#FFFFFF;}
</style>
<g>
	<path class="st0" d="M29.4,12H28l0.8-1.3V8.2l-1.6-1.9H26V2.1c0.4-0.1,0.8-0.5,0.8-1c0-0.6-0.5-1.1-1.1-1.1c-0.6,0-1.1,0.5-1.1,1.1
		c0,0.5,0.3,0.9,0.8,1v4.2h-1.5l-0.2-0.5h-7l-0.2,0.5h-3.4l-1.7,2.1H2.7V8.1H0v3.2h2.7v-0.2h8.7L12,12h-1c-2.2,0-4,1.8-4,4
		c0,2.2,1.8,4,4,4h18.4c2.2,0,4-1.8,4-4C33.4,13.8,31.6,12,29.4,12z M13.3,18c-0.5,0.5-1.2,0.8-2,0.8c-0.8,0-1.5-0.3-2-0.8
		c-0.5-0.5-0.8-1.2-0.8-2c0-0.8,0.3-1.5,0.8-2c0.5-0.5,1.2-0.8,2-0.8c0.8,0,1.5,0.3,2,0.8c0.5,0.5,0.8,1.2,0.8,2
		C14.1,16.8,13.8,17.5,13.3,18z M19.2,18c-0.5,0.5-1.2,0.8-2,0.8c-0.8,0-1.5-0.3-2-0.8c-0.5-0.5-0.8-1.2-0.8-2c0-0.8,0.3-1.5,0.8-2
		c0.5-0.5,1.2-0.8,2-0.8c0.8,0,1.5,0.3,2,0.8c0.5,0.5,0.8,1.2,0.8,2C20,16.8,19.7,17.5,19.2,18z M25.1,18c-0.5,0.5-1.2,0.8-2,0.8
		c-0.8,0-1.5-0.3-2-0.8c-0.5-0.5-0.8-1.2-0.8-2c0-0.8,0.3-1.5,0.8-2c0.5-0.5,1.2-0.8,2-0.8c0.8,0,1.5,0.3,2,0.8
		c0.5,0.5,0.8,1.2,0.8,2C25.9,16.8,25.6,17.5,25.1,18z M31,18c-0.5,0.5-1.2,0.8-2,0.8c-0.8,0-1.5-0.3-2-0.8c-0.5-0.5-0.8-1.2-0.8-2
		c0-0.8,0.3-1.5,0.8-2c0.5-0.5,1.2-0.8,2-0.8c0.8,0,1.5,0.3,2,0.8c0.5,0.5,0.8,1.2,0.8,2C31.8,16.8,31.5,17.5,31,18z"/>
	<path class="st0" d="M13.3,16c0,1.1-0.8,1.9-1.9,1.9c-1.1,0-1.9-0.9-1.9-1.9c0-1.1,0.9-1.9,1.9-1.9C12.4,14.1,13.3,14.9,13.3,16z"
		/>
	<path class="st0" d="M19.1,16c0,1.1-0.8,1.9-1.9,1.9c-1.1,0-1.9-0.9-1.9-1.9c0-1.1,0.9-1.9,1.9-1.9C18.3,14.1,19.1,14.9,19.1,16z"
		/>
	<path class="st0" d="M25,16c0,1.1-0.8,1.9-1.9,1.9c-1.1,0-1.9-0.9-1.9-1.9c0-1.1,0.9-1.9,1.9-1.9C24.2,14.1,25,14.9,25,16z"/>
	<ellipse class="st0" cx="29" cy="16" rx="1.9" ry="1.9"/>
	<path class="st0" d="M32.8,6.4v2h4.5V20h2.2V8.4h4.4v-2H32.8z"/>
	<path class="st0" d="M56.6,19.6l-4-4.5c2.7-0.4,3.7-2.3,3.7-4.2c0-2.3-1.6-4.4-4.8-4.4c-2.1,0-4.2,0-6.3,0V20h2.2v-3.4h0v-4.5l0,0
		V8.4h4.1c1.8,0,2.6,1.3,2.6,2.5c0,1.3-0.8,2.4-2.6,2.4h-3.1l1.8,2l4.1,4.7h2.5L56.6,19.6z"/>
	<path class="st0" d="M60.6,17.9v-3.6h7.5v-2h-7.5V8.6h7.8V6.4h-10V20h10v-2.1H60.6z"/>
	<path class="st0" d="M75.7,6.4h-5.1v12.2l2.2-1V8.5h3c3.2,0,4.6,2.3,4.6,4.6c0.1,2.4-1.3,4.8-4.6,4.8H73L71.3,20h4.4
		c4.8,0,6.9-3.5,6.8-6.9C82.4,9.8,80.3,6.4,75.7,6.4z"/>
	<path class="st0" d="M86.6,18V6.4h-2.2V20h9.3v-2H86.6z"/>
	<path class="st0" d="M101.8,6.4l-3.9,6l-3.7-6h-2.6v0.1l5.2,7.9V20H99v-5.6l5.4-7.9V6.4H101.8z"/>
</g>
</svg>
