<!-- Generator: Adobe Illustrator 19.2.1, SVG Export Plug-In  -->
<svg version="1.1"
	 xmlns="http://www.w3.org/2000/svg" xmlns:xlink="http://www.w3.org/1999/xlink" xmlns:a="http://ns.adobe.com/AdobeSVGViewerExtensions/3.0/"
	 x="0px" y="0px" viewBox="0 60 60 52.5" enable-background="new 0 60 60 52.5"
	 xml:space="preserve">
	 <defs>
	 	<style type="text/css">
			.arm { fill: #cccccc; }
			.tank { fill: #6b9d34 }
			.tank-wheels { animation: wheels 2s infinite linear; }
			.arm2 { animation: arm2 2s infinite linear; }
			.tank-body { animation: body 2s infinite linear; }

			.arm3 { animation: arm3 2s infinite linear; }
			.tank-gun { animation: gun 2s infinite linear; }

			.arm1 { animation: arm1 2s infinite linear; }
			.tank-antenna { animation: antenna 2s infinite linear; }

			@keyframes wheels {
			    0% { transform: translateY(-367%)}
			    5% { transform: translateY(0%)}
			}
			@keyframes arm2 {
			    0%,15%,20%,35% { transform: translateY(0%)}
			    5%,10% { transform: translateY(86.6%)}
			    25%,30% { transform: translateY(65.4%) }
			}

			@keyframes body {
			    0%,20% { transform: translateY(-367%)}
			    25%,100% { transform: translateY(0%)}
			}

			@keyframes arm3 {
			    0%,40%,55% { transform: translateY(0%)}
			    45%,50% { transform: translateY(74.2%)}
			}
			@keyframes gun {
			    0%,40% { transform: translateY(-646%)}
			    45%,100% { transform: translateY(0%)}
			}

			@keyframes arm1 {
				0%,60%,75% { transform: translateY(0%)}
				65%,70% { transform: translateY(50%)}
			}
			@keyframes antenna {
			    0%,60% { transform: translateY(-248%)}
			    65%,100% { transform: translateY(0%)}
			}


	 	</style>
	 </defs>



<polygon class="tank tank-gun" points="39.4758,96.6339 55.0868,96.6339 55.0868,97.0511 60,97.0511 60,91.3047 55.0868,91.3047
	55.0868,91.7219 39.6165,91.7219 "/>
<path class="tank tank-antenna" d="M14.3766,88.0111V80.534c0.7962-0.242,1.3937-0.9814,1.3937-1.8579c0-1.0715-0.8851-1.9505-1.9529-1.9505
	c-1.0666,0-1.948,0.8789-1.948,1.9505c0,0.8789,0.5864,1.6184,1.39,1.8579v7.4772H14.3766z"/>
<g class="tank tank-wheels">
	<path d="M7.1994,98.3251C3.2281,98.3251,0,101.552,0,105.5245c0,3.9713,3.2281,7.1747,7.1994,7.1747h33.0738
		c3.9701,0,7.1969-3.201,7.1969-7.1747c0-3.9725-3.2269-7.1994-7.1969-7.1994H7.1994z M34.6021,105.5245
		c0-1.3505,0.5172-2.6171,1.4554-3.5651c0.9431-0.9542,2.2085-1.4801,3.5614-1.4801c1.3505,0,2.6183,0.5234,3.5688,1.4727
		c0.953,0.9518,1.4764,2.2196,1.4764,3.5725c0,1.3518-0.5234,2.6196-1.4764,3.5701c-0.9505,0.9493-2.2183,1.4727-3.5688,1.4727
		c-1.353,0-2.6171-0.5246-3.5614-1.4789C35.1193,108.1403,34.6021,106.875,34.6021,105.5245z M24.0227,105.5245
		c0-1.3505,0.516-2.6171,1.4542-3.5651c0.9444-0.9542,2.2097-1.4801,3.5627-1.4801c1.3505,0,2.6183,0.5234,3.5688,1.4727
		c0.9518,0.9518,1.4764,2.2196,1.4764,3.5725c0,1.3518-0.5247,2.6196-1.4764,3.5701c-0.9518,0.9493-2.2183,1.4727-3.5688,1.4727
		c-1.353,0-2.6183-0.5246-3.5614-1.4789C24.5387,108.1403,24.0227,106.875,24.0227,105.5245z M13.4433,105.5245
		c0-1.3505,0.516-2.6171,1.4542-3.5651c0.9444-0.9542,2.2097-1.4801,3.5627-1.4801c1.3505,0,2.6183,0.5234,3.5688,1.4727
		c0.9518,0.9518,1.4764,2.2196,1.4764,3.5725c0,1.3518-0.5246,2.6196-1.4764,3.5701c-0.9518,0.9493-2.2183,1.4727-3.5688,1.4727
		c-1.353,0-2.6183-0.5246-3.5627-1.4789C13.9593,108.1403,13.4433,106.875,13.4433,105.5245z M2.8627,105.5245
		c0-1.3505,0.5172-2.6171,1.4554-3.5651c0.9444-0.9542,2.2085-1.4801,3.5627-1.4801c1.3505,0,2.6171,0.5234,3.5688,1.4727
		c0.9518,0.9518,1.4764,2.2196,1.4764,3.5725c0,1.3518-0.5246,2.6196-1.4777,3.5701c-0.9505,0.9493-2.2183,1.4727-3.5676,1.4727
		c-1.353,0-2.6183-0.5246-3.5627-1.4789C3.38,108.1403,2.8627,106.875,2.8627,105.5245z"/>
	<path d="M36.1575,105.5245c0,1.9357,1.5258,3.4874,3.4614,3.4874c1.9332,0,3.4898-1.5517,3.4898-3.4874
		c0-1.9381-1.5567-3.4898-3.4898-3.4898C37.6833,102.0347,36.1575,103.5864,36.1575,105.5245z"/>
	<path d="M25.5781,105.5245c0,1.9357,1.5258,3.4874,3.4614,3.4874c1.9332,0,3.4898-1.5517,3.4898-3.4874
		c0-1.9381-1.5567-3.4898-3.4898-3.4898C27.1039,102.0347,25.5781,103.5864,25.5781,105.5245z"/>
	<path d="M14.9988,105.5245c0,1.9357,1.5258,3.4874,3.4614,3.4874c1.9319,0,3.4898-1.5517,3.4898-3.4874
		c0-1.9381-1.5579-3.4898-3.4898-3.4898C16.5246,102.0347,14.9988,103.5864,14.9988,105.5245z"/>
	<path d="M4.4182,105.5245c0,1.9357,1.527,3.4874,3.4627,3.4874c1.9319,0,3.4898-1.5517,3.4898-3.4874
		c0-1.9381-1.5579-3.4898-3.4898-3.4898C5.9452,102.0347,4.4182,103.5864,4.4182,105.5245z"/>
</g>
<polygon class="tank tank-body" points="10.9954,88.0111 8.1055,91.4022 8.1055,95.9771 9.556,98.3251 38.4154,98.3251 39.4758,96.6339
	39.6165,91.7219 36.4748,88.0111 30.4111,88.0111 30.0518,87.1346 17.4405,87.1346 17.0813,88.0111 "/>
<polygon class="arm arm1" points="15.9038,48.7227 14.7443,48.2426 14.7443,0 12.8955,0 12.8955,48.2426 11.7359,48.7227
	10.8736,50.8066 11.6568,52.6992 12.5806,52.3164 11.9556,50.8066 12.5015,49.4883 13.8199,48.9419 15.1382,49.4883
	15.6841,50.8066 15.0591,52.3164 15.9829,52.6992 16.7661,50.8066 "/>
<polygon class="arm arm2" points="24.7854,51.4141 24.7854,0 22.9366,0 22.9366,51.4141 20.897,51.4141 20.897,52.6992
	26.825,52.6992 26.825,51.4141 "/>
<polygon class="arm arm3" points="50.6623,51.4141 50.6623,0 48.8135,0 48.8135,51.4141 46.7739,51.4141 46.7739,52.6992
	52.7018,52.6992 52.7018,51.4141 "/>
</svg>
