<?xml version="1.0" encoding="utf-8"?>
<!-- Generator: Adobe Illustrator 19.2.1, SVG Export Plug-In . SVG Version: 6.00 Build 0)  -->
<svg version="1.1" id="Layer_1" xmlns="http://www.w3.org/2000/svg" xmlns:xlink="http://www.w3.org/1999/xlink" x="0px" y="0px"
	 viewBox="0 0 33 33" enable-background="new 0 0 33 33" xml:space="preserve">
<path d="M18.6211,16.5l9.5459-9.5459c0.5859-0.5854,0.5859-1.5356,0-2.1211c-0.5859-0.5859-1.5352-0.5859-2.1211,0L16.5,14.3789
	L6.9541,4.833c-0.5859-0.5859-1.5352-0.5859-2.1211,0c-0.5859,0.5854-0.5859,1.5356,0,2.1211L14.3789,16.5L4.833,26.0459
	c-0.5859,0.5859-0.5859,1.5352,0,2.1211c0.293,0.293,0.6768,0.4395,1.0605,0.4395S6.6611,28.46,6.9541,28.167L16.5,18.6211
	l9.5459,9.5459c0.293,0.293,0.6768,0.4395,1.0605,0.4395S27.874,28.46,28.167,28.167c0.5859-0.5859,0.5859-1.5352,0-2.1211
	L18.6211,16.5z"/>
</svg>
