<?xml version="1.0" encoding="utf-8"?>
<!-- Generator: Adobe Illustrator 19.2.1, SVG Export Plug-In . SVG Version: 6.00 Build 0)  -->
<svg version="1.1" id="Layer_1" xmlns="http://www.w3.org/2000/svg" xmlns:xlink="http://www.w3.org/1999/xlink" x="0px" y="0px"
	 viewBox="0 0 33 33" enable-background="new 0 0 33 33" xml:space="preserve">
<path d="M32.3938,6.8838c-0.5859-0.5859-1.5352-0.5859-2.1211,0l-4.488,4.488l-4.3234-4.3235l4.4881-4.4877
	c0.5859-0.5854,0.5859-1.5352,0-2.1211s-1.5352-0.5859-2.1211,0l-4.488,4.4877l-2.6702-2.6703
	c-0.5625-0.5625-1.5586-0.5625-2.1211,0c-2.1431,2.1431-3.3247,4.9912-3.3267,8.0195c-0.0018,2.761,0.9856,5.364,2.7795,7.4252
	c-0.7803,4.2874-2.8082,4.4047-5.8088,4.5636C4.8059,22.4443,0.1667,22.6899,0.1667,31.5c0,0.8281,0.6714,1.5,1.5,1.5
	s1.5-0.6719,1.5-1.5c0-5.9648,1.9517-6.0684,5.1851-6.2393c2.8482-0.1505,6.6177-0.3511,8.2007-5.375
	c1.7818,1.1172,3.8399,1.7251,5.9966,1.7251c0.002,0,0.0049,0,0.0078,0c3.0283-0.002,5.877-1.1831,8.0195-3.3262
	c0.2812-0.2812,0.4395-0.6626,0.4395-1.0605s-0.1582-0.7793-0.4395-1.0605l-2.6706-2.6707l4.488-4.488
	C32.9797,8.4194,32.9797,7.4692,32.3938,6.8838z M22.5549,18.6108c-0.002,0-0.0039,0-0.0059,0c-2.2256,0-4.3164-0.8657-5.8887-2.438
	c-1.5732-1.5737-2.4395-3.667-2.4375-5.894c0.001-1.7202,0.5195-3.3613,1.4814-4.7456l2.5746,2.5749
	c0.0002,0.0002,0.0003,0.0005,0.0005,0.0008s0.0005,0.0003,0.0008,0.0005l6.4431,6.4436c0.0002,0.0002,0.0002,0.0005,0.0004,0.0007
	s0.0005,0.0002,0.0007,0.0004L27.3,17.1299C25.9153,18.0913,24.2747,18.6099,22.5549,18.6108z"/>
</svg>
