<?xml version="1.0" encoding="utf-8"?>
<!-- Generator: Adobe Illustrator 19.2.1, SVG Export Plug-In . SVG Version: 6.00 Build 0)  -->
<svg version="1.1" id="Layer_1" xmlns="http://www.w3.org/2000/svg" xmlns:xlink="http://www.w3.org/1999/xlink" x="0px" y="0px"
	 viewBox="0 0 33 33" enable-background="new 0 0 33 33" xml:space="preserve">
<g>
	<path d="M31.5,3.25h-30C0.6714,3.25,0,3.9214,0,4.75v23.5c0,0.8281,0.6714,1.5,1.5,1.5h30c0.8281,0,1.5-0.6719,1.5-1.5V4.75
		C33,3.9214,32.3281,3.25,31.5,3.25z M30,26.75H3V6.25h27V26.75z"/>
	<path d="M10.6118,16.4575l-3.5737,3.6934c-0.5757,0.5952-0.5601,1.5449,0.0352,2.1211c0.291,0.2817,0.667,0.4219,1.043,0.4219
		c0.3921,0,0.7837-0.1528,1.0781-0.457l4.6167-4.771c0.5757-0.5952,0.5601-1.5449-0.0352-2.1211l-4.771-4.6167
		c-0.5947-0.5757-1.5444-0.5615-2.1211,0.0352c-0.5757,0.5952-0.5601,1.5449,0.0352,2.1211L10.6118,16.4575z"/>
	<path d="M17.9209,22.6938h7.5332c0.8281,0,1.5-0.6714,1.5-1.5s-0.6719-1.5-1.5-1.5h-7.5332c-0.8281,0-1.5,0.6714-1.5,1.5
		S17.0928,22.6938,17.9209,22.6938z"/>
</g>
</svg>
