<?xml version="1.0" encoding="utf-8"?>
<!-- Generator: Adobe Illustrator 19.2.1, SVG Export Plug-In . SVG Version: 6.00 Build 0)  -->
<svg version="1.1" id="Layer_1" xmlns="http://www.w3.org/2000/svg" xmlns:xlink="http://www.w3.org/1999/xlink" x="0px" y="0px"
	 viewBox="0 0 33 33" enable-background="new 0 0 33 33" xml:space="preserve">
<path d="M30.9823,8.94c-0.0035-0.0897-0.0156-0.1785-0.0355-0.2675c-0.0072-0.0322-0.0123-0.0643-0.0217-0.0958
	c-0.0325-0.1099-0.0744-0.218-0.1338-0.3218c-0.0019-0.0032-0.0037-0.0064-0.0056-0.0096c-0.0604-0.1039-0.1336-0.1947-0.213-0.2781
	c-0.0212-0.0222-0.0447-0.0414-0.0673-0.0623c-0.0693-0.0643-0.1429-0.1212-0.2218-0.1705
	c-0.0156-0.0098-0.0273-0.024-0.0434-0.0333l-12.9902-7.5c-0.4639-0.2686-1.0361-0.2686-1.5,0l-12.9902,7.5
	C2.7418,7.7115,2.7288,7.7274,2.7114,7.7383C2.6362,7.7859,2.5658,7.8402,2.4992,7.9014c-0.0248,0.0228-0.0506,0.0437-0.0737,0.068
	c-0.0787,0.0828-0.1511,0.173-0.2111,0.2758c-0.002,0.0033-0.0038,0.0065-0.0057,0.0098C2.1492,8.3589,2.1072,8.4673,2.0746,8.5775
	C2.0656,8.6083,2.0605,8.6398,2.0534,8.6713C2.0332,8.7609,2.0211,8.8505,2.0176,8.9409C2.0168,8.961,2.0098,8.9797,2.0098,9v15
	c0,0.5361,0.2861,1.0312,0.75,1.2988l12.9902,7.5c0.017,0.0098,0.0361,0.0129,0.0533,0.022
	c0.0812,0.043,0.1661,0.0778,0.2553,0.1055c0.0297,0.0092,0.0583,0.0201,0.0884,0.0275C16.2608,32.9814,16.3778,33,16.5,33
	s0.2392-0.0186,0.3529-0.0462c0.0301-0.0073,0.0587-0.0182,0.0884-0.0275c0.0892-0.0276,0.1741-0.0625,0.2553-0.1055
	c0.0172-0.0091,0.0364-0.0123,0.0533-0.022l12.9902-7.5c0.4639-0.2676,0.75-0.7627,0.75-1.2988V9
	C30.9902,8.9794,30.9832,8.9604,30.9823,8.94z M16.5,3.2319l9.9903,5.7682L16.5,14.7681L6.5097,9.0002L16.5,3.2319z M5.0098,11.5979
	L15,17.3658v11.5358l-9.9902-5.7678V11.5979z M18,28.9016V17.3658l9.9902-5.7679v11.5359L18,28.9016z"/>
</svg>
