<?xml version="1.0" encoding="utf-8"?>
<!-- Generator: Adobe Illustrator 19.2.1, SVG Export Plug-In . SVG Version: 6.00 Build 0)  -->
<svg version="1.1" id="Layer_1" xmlns="http://www.w3.org/2000/svg" xmlns:xlink="http://www.w3.org/1999/xlink" x="0px" y="0px"
	 viewBox="0 0 33 33" enable-background="new 0 0 33 33" xml:space="preserve">
<g>
	<path d="M31.5,6h-4.7051h-2.2012V1.5c0-0.8286-0.6719-1.5-1.5-1.5H10.1562c-0.8286,0-1.5,0.6714-1.5,1.5V6H6.4551H1.5
		C0.6714,6,0,6.6714,0,7.5S0.6714,9,1.5,9h3.5774l1.928,22.627C7.0718,32.4033,7.7207,33,8.5,33h16.25
		c0.7793,0,1.4287-0.5967,1.4941-1.373L28.1721,9H31.5C32.3281,9,33,8.3286,33,7.5S32.3281,6,31.5,6z M11.6562,3h9.9375v3h-9.9375V3
		z M23.3721,30H9.8774L8.0884,9h2.0679h12.9375h2.0684L23.3721,30z"/>
	<path d="M12.4043,11.3442c-0.8262,0.0645-1.4434,0.7861-1.3794,1.6118l1.0742,13.8203c0.061,0.7861,0.7183,1.3838,1.4941,1.3838
		c0.0391,0,0.0781-0.001,0.1177-0.0049c0.8262-0.0635,1.4434-0.7852,1.3794-1.6113l-1.0742-13.8203
		C13.9526,11.8975,13.2368,11.291,12.4043,11.3442z"/>
	<path d="M20.8457,11.3442c-0.8154-0.0688-1.5479,0.5532-1.6113,1.3794l-1.0742,13.8203c-0.0645,0.8262,0.5527,1.5479,1.3789,1.6113
		c0.0391,0.0039,0.0791,0.0049,0.1182,0.0049c0.7754,0,1.4326-0.5977,1.4932-1.3838l1.0742-13.8203
		C22.2891,12.1304,21.6719,11.4087,20.8457,11.3442z"/>
</g>
</svg>
