<?xml version="1.0" encoding="utf-8"?>
<!-- Generator: Adobe Illustrator 19.2.1, SVG Export Plug-In . SVG Version: 6.00 Build 0)  -->
<svg version="1.1" id="Layer_1" xmlns="http://www.w3.org/2000/svg" xmlns:xlink="http://www.w3.org/1999/xlink" x="0px" y="0px"
	 viewBox="0 0 33 33" enable-background="new 0 0 33 33" xml:space="preserve">
<g>
	<path d="M21.2212,8.1118c-0.5625-0.5625-1.5586-0.5625-2.1211,0L3.4429,23.7695C3.314,23.8984,3.21,24.0488,3.1353,24.2148
		l-3,6.6699c-0.2554,0.5684-0.1328,1.2354,0.3076,1.6758C0.7305,32.8486,1.1143,33,1.5039,33c0.208,0,0.418-0.043,0.6157-0.1328
		l6.6602-3c0.165-0.0742,0.3159-0.1777,0.4443-0.3066l15.667-15.6572c0.2812-0.2812,0.4395-0.6631,0.4395-1.061
		c0-0.3975-0.1582-0.7793-0.4395-1.0605L21.2212,8.1118z"/>
	<path d="M32.5571,4.1089l-3.6699-3.6694c-0.5625-0.5625-1.5586-0.5625-2.1211,0l-3.6689,3.6694
		c-0.5859,0.5859-0.5859,1.5356,0,2.1211l3.6689,3.6689c0.293,0.293,0.6768,0.4395,1.0605,0.4395s0.7676-0.1465,1.0605-0.439
		l3.6699-3.6689c0.2812-0.2817,0.4395-0.6631,0.4395-1.061S32.8384,4.3901,32.5571,4.1089z"/>
</g>
</svg>
