<?xml version="1.0" encoding="utf-8"?>
<!-- Generator: Adobe Illustrator 19.2.1, SVG Export Plug-In . SVG Version: 6.00 Build 0)  -->
<svg version="1.1" id="Layer_1" xmlns="http://www.w3.org/2000/svg" xmlns:xlink="http://www.w3.org/1999/xlink" x="0px" y="0px"
	 viewBox="0 0 33 33" enable-background="new 0 0 33 33" xml:space="preserve">
<g>
	<path d="M32.692,32.4012c0.028-0.037,0.0549-0.0742,0.0795-0.1137c0.0258-0.0417,0.0482-0.0845,0.0697-0.1284
		c0.0213-0.0432,0.0413-0.0865,0.0585-0.132c0.0173-0.0458,0.0307-0.0924,0.0434-0.1397c0.0123-0.0457,0.0239-0.0911,0.0319-0.1384
		c0.0091-0.0535,0.0131-0.1072,0.0163-0.1617C32.9929,31.5579,33,31.5299,33,31.5c0-0.0149-0.004-0.0287-0.0044-0.0436
		c-0.0015-0.0546-0.0089-0.1088-0.0165-0.1635c-0.0064-0.046-0.0118-0.0917-0.0223-0.1362
		c-0.0108-0.046-0.0269-0.0907-0.0423-0.1361c-0.0172-0.0505-0.0341-0.1005-0.0563-0.1484c-0.0065-0.0142-0.0093-0.029-0.0164-0.043
		l-15.001-30c-0.0054-0.0109-0.0135-0.0195-0.0192-0.0302c-0.0262-0.0497-0.0583-0.0958-0.0902-0.1425
		c-0.0242-0.0354-0.0464-0.0721-0.0732-0.1049c-0.0325-0.0399-0.0706-0.0753-0.1074-0.1119
		c-0.0333-0.0329-0.0649-0.0672-0.1007-0.0966c-0.0365-0.03-0.0775-0.055-0.1172-0.0818c-0.0426-0.0286-0.0842-0.0578-0.1293-0.0818
		c-0.0119-0.0063-0.0215-0.0153-0.0336-0.0213C17.1373,0.142,17.103,0.134,17.0698,0.1203
		c-0.0456-0.0188-0.0905-0.0379-0.1377-0.0522c-0.0491-0.0148-0.0984-0.0244-0.1481-0.034c-0.0459-0.009-0.0913-0.0179-0.138-0.0225
		c-0.0491-0.0048-0.0976-0.0051-0.1466-0.005c-0.049-0.0001-0.0975,0.0002-0.1467,0.005c-0.0464,0.0046-0.0916,0.0135-0.1373,0.0224
		c-0.0502,0.0097-0.0999,0.0194-0.1496,0.0344C16.02,0.0822,15.9763,0.1008,15.9319,0.119
		c-0.0344,0.0141-0.0699,0.0224-0.1038,0.0392c-0.0126,0.0063-0.0226,0.0155-0.035,0.0222c-0.043,0.0229-0.0826,0.051-0.1234,0.0781
		c-0.0416,0.0278-0.0843,0.054-0.1224,0.0853c-0.035,0.0287-0.066,0.0624-0.0985,0.0945c-0.0374,0.037-0.0758,0.0728-0.1088,0.1132
		c-0.0273,0.0333-0.05,0.0707-0.0746,0.1068c-0.0312,0.0458-0.0626,0.0908-0.0884,0.1395
		c-0.0059,0.0111-0.0142,0.0201-0.0199,0.0314l-14.999,30c-0.007,0.0139-0.0097,0.0286-0.0162,0.0425
		c-0.0225,0.0484-0.0396,0.099-0.0569,0.15c-0.0152,0.0448-0.031,0.0891-0.0417,0.1345c-0.0106,0.0452-0.0162,0.0916-0.0227,0.1382
		c-0.0074,0.0539-0.0147,0.1073-0.0162,0.1611C0.004,31.4707,0,31.4848,0,31.5c0,0.0305,0.0072,0.059,0.009,0.0891
		c0.0032,0.0535,0.0071,0.1063,0.0161,0.1589c0.0081,0.0484,0.02,0.0949,0.0326,0.1417c0.0124,0.0459,0.0254,0.0911,0.0421,0.1356
		c0.0178,0.0472,0.0386,0.092,0.0607,0.1368c0.0207,0.0421,0.0421,0.0831,0.0668,0.1231c0.0256,0.0415,0.0537,0.0804,0.0831,0.119
		c0.0293,0.0386,0.0592,0.0762,0.0924,0.112c0.0331,0.0357,0.0684,0.0683,0.1048,0.1006c0.0357,0.0318,0.0715,0.0627,0.1107,0.0913
		c0.0428,0.0314,0.0881,0.0583,0.1342,0.085c0.0264,0.0153,0.0491,0.0347,0.0767,0.0486c0.0124,0.0062,0.0256,0.0079,0.0381,0.0137
		c0.0725,0.0339,0.1486,0.0596,0.2269,0.0818c0.0279,0.0079,0.0549,0.0197,0.083,0.0258c0.1016,0.0223,0.2065,0.0354,0.3147,0.036
		C1.4942,32.9991,1.4966,33,1.499,33c0.0001,0,0.0003-0.0001,0.0004-0.0001C1.4996,32.9999,1.4998,33,1.5,33h30
		c0.0002,0,0.0004-0.0001,0.0005-0.0001c0.0001,0,0.0003,0.0001,0.0004,0.0001c0.0024,0,0.0048-0.0009,0.0072-0.0009
		c0.1081-0.0006,0.213-0.0136,0.3146-0.036c0.0281-0.0062,0.0551-0.0179,0.0829-0.0258c0.0781-0.0221,0.1542-0.0478,0.2266-0.0817
		c0.0126-0.0059,0.026-0.0077,0.0386-0.0139c0.0282-0.0141,0.0513-0.0339,0.0782-0.0495c0.0451-0.0262,0.0895-0.0526,0.1315-0.0832
		c0.0406-0.0295,0.0776-0.0615,0.1144-0.0945c0.0349-0.0311,0.0688-0.0623,0.1006-0.0965
		C32.6303,32.4808,32.6616,32.4416,32.692,32.4012z M16.4991,4.8545L29.0727,30H3.9272L16.4991,4.8545z"/>
	<path d="M16.5,21.917c0.8286,0,1.5-0.6719,1.5-1.5V13.5c0-0.8286-0.6714-1.5-1.5-1.5S15,12.6714,15,13.5v6.917
		C15,21.2451,15.6714,21.917,16.5,21.917z"/>
	<path d="M16.5098,24.417H16.5c-0.8286,0-1.4951,0.6719-1.4951,1.5s0.6763,1.5,1.5049,1.5s1.5-0.6719,1.5-1.5
		S17.3384,24.417,16.5098,24.417z"/>
</g>
</svg>
