<?xml version="1.0" encoding="utf-8"?>
<!-- Generator: Adobe Illustrator 19.2.1, SVG Export Plug-In . SVG Version: 6.00 Build 0)  -->
<svg version="1.1" id="Layer_1" xmlns="http://www.w3.org/2000/svg" xmlns:xlink="http://www.w3.org/1999/xlink" x="0px" y="0px"
	 viewBox="0 0 33 33" enable-background="new 0 0 33 33" xml:space="preserve">
<path d="M32.8517,0.8501C32.6027,0.3306,32.0763,0,31.5001,0h-30C0.9235,0,0.3981,0.3306,0.1481,0.8501
	c-0.2495,0.52-0.1797,1.1367,0.1807,1.5869l11.6714,14.5894V31.5c0,0.6455,0.4131,1.2188,1.0259,1.4229
	C13.1818,32.9746,13.3414,33,13.5001,33c0.4629,0,0.9111-0.2148,1.2002-0.5996l6-8c0.1943-0.2598,0.2998-0.5762,0.2998-0.9004
	v-6.4736L32.671,2.437C33.0314,1.9868,33.1017,1.3701,32.8517,0.8501z M18.3292,15.563c-0.2129,0.2661-0.3291,0.5962-0.3291,0.937
	V23l-3,4V16.5c0-0.3408-0.1157-0.6709-0.3286-0.937L4.6212,3H28.379L18.3292,15.563z"/>
</svg>
