<?xml version="1.0" encoding="utf-8"?>
<!-- Generator: Adobe Illustrator 19.2.1, SVG Export Plug-In . SVG Version: 6.00 Build 0)  -->
<svg version="1.1" id="Layer_1" xmlns="http://www.w3.org/2000/svg" xmlns:xlink="http://www.w3.org/1999/xlink" x="0px" y="0px"
	 viewBox="0 0 33 33" enable-background="new 0 0 33 33" xml:space="preserve">
<path d="M27.2383,19.1699c-1.8814,0-3.5489,0.9155-4.5945,2.3199L11.498,17.1213c0.0222-0.2043,0.0352-0.4113,0.0352-0.6213
	c0-0.21-0.013-0.417-0.0352-0.6212l11.1458-4.3682c1.0457,1.4042,2.7131,2.3195,4.5945,2.3195c3.1602,0,5.7305-2.5708,5.7305-5.731
	s-2.5703-5.731-5.7305-5.731s-5.7314,2.5708-5.7314,5.731c0,0.2101,0.0131,0.4172,0.0352,0.6215l-11.1456,4.3679
	c-1.0455-1.4042-2.7128-2.3195-4.5942-2.3195c-3.1602,0-5.7314,2.5708-5.7314,5.731s2.5713,5.7314,5.7314,5.7314
	c1.8814,0,3.5487-0.9155,4.5942-2.3199l11.1456,4.3682c-0.0222,0.2044-0.0352,0.4114-0.0352,0.6216
	c0,3.1602,2.5713,5.7305,5.7314,5.7305s5.7305-2.5703,5.7305-5.7305S30.3984,19.1699,27.2383,19.1699z M27.2383,5.3682
	c1.5059,0,2.7305,1.2251,2.7305,2.731s-1.2246,2.731-2.7305,2.731s-2.7314-1.2251-2.7314-2.731S25.7324,5.3682,27.2383,5.3682z
	 M5.8022,19.2314c-1.5063,0-2.7314-1.2256-2.7314-2.7314s1.2251-2.731,2.7314-2.731c1.5059,0,2.731,1.2251,2.731,2.731
	S7.3081,19.2314,5.8022,19.2314z M27.2383,27.6318c-1.5059,0-2.7314-1.2246-2.7314-2.7305s1.2256-2.7314,2.7314-2.7314
	s2.7305,1.2256,2.7305,2.7314S28.7441,27.6318,27.2383,27.6318z"/>
</svg>
