<?xml version="1.0" encoding="utf-8"?>
<!-- Generator: Adobe Illustrator 19.2.1, SVG Export Plug-In . SVG Version: 6.00 Build 0)  -->
<svg version="1.1" id="Layer_1" xmlns="http://www.w3.org/2000/svg" xmlns:xlink="http://www.w3.org/1999/xlink" x="0px" y="0px"
	 viewBox="0 0 33 33" enable-background="new 0 0 33 33" xml:space="preserve">
<g>
	<path d="M31.5,15h-30C0.6714,15,0,15.6714,0,16.5S0.6714,18,1.5,18h30c0.8281,0,1.5-0.6714,1.5-1.5S32.3281,15,31.5,15z"/>
	<path d="M1.5,10.5h30c0.8281,0,1.5-0.6714,1.5-1.5s-0.6719-1.5-1.5-1.5h-30C0.6714,7.5,0,8.1714,0,9S0.6714,10.5,1.5,10.5z"/>
	<path d="M31.5,22.5h-30C0.6714,22.5,0,23.1719,0,24s0.6714,1.5,1.5,1.5h30c0.8281,0,1.5-0.6719,1.5-1.5S32.3281,22.5,31.5,22.5z"/>
</g>
</svg>
