<?xml version="1.0" encoding="utf-8"?>
<!-- Generator: Adobe Illustrator 19.2.1, SVG Export Plug-In . SVG Version: 6.00 Build 0)  -->
<svg version="1.1" id="Layer_1" xmlns="http://www.w3.org/2000/svg" xmlns:xlink="http://www.w3.org/1999/xlink" x="0px" y="0px"
	 viewBox="0 0 33 33" enable-background="new 0 0 33 33" xml:space="preserve">
<g>
	<path d="M31.5,16.5c-0.8281,0-1.5,0.6719-1.5,1.5v10.5c0,0.8271-0.6729,1.5-1.5,1.5h-24C3.6729,30,3,29.3271,3,28.5v-24
		C3,3.6729,3.6729,3,4.5,3H15c0.8286,0,1.5-0.6714,1.5-1.5S15.8286,0,15,0H4.5C2.0186,0,0,2.0186,0,4.5v24
		C0,30.9814,2.0186,33,4.5,33h24c2.4814,0,4.5-2.0186,4.5-4.5V18C33,17.1719,32.3281,16.5,31.5,16.5z"/>
	<path d="M20.8916,3.0063h6.9805L15.4395,15.4395c-0.5859,0.5859-0.5859,1.5352,0,2.1211C15.7324,17.8535,16.1162,18,16.5,18
		s0.7676-0.1465,1.0605-0.4395l12.4326-12.433v6.9809c0,0.8286,0.6719,1.5,1.5,1.5s1.5-0.6714,1.5-1.5V1.5063
		c0-0.0001,0-0.0001,0-0.0001S32.9931,1.506,32.9931,1.506c-0.0001-0.1935-0.0397-0.377-0.1064-0.5467
		c-0.0031-0.0077-0.004-0.0155-0.0072-0.0232c-0.1522-0.3694-0.447-0.6641-0.8165-0.8162c-0.0074-0.0031-0.0151-0.0041-0.0226-0.007
		c-0.1699-0.0668-0.3536-0.1066-0.5473-0.1066H20.8916c-0.8281,0-1.5,0.6714-1.5,1.5S20.0635,3.0063,20.8916,3.0063z"/>
</g>
</svg>
