<?xml version="1.0" encoding="utf-8"?>
<!-- Generator: Adobe Illustrator 19.2.1, SVG Export Plug-In . SVG Version: 6.00 Build 0)  -->
<svg version="1.1" id="Layer_1" xmlns="http://www.w3.org/2000/svg" xmlns:xlink="http://www.w3.org/1999/xlink" x="0px" y="0px"
	 viewBox="0 0 33 33" enable-background="new 0 0 33 33" xml:space="preserve">
<g>
	<path d="M16.5,30.7998c-9.0981,0-16.5-7.4023-16.5-16.5C0,9.8901,1.7192,5.748,4.8413,2.6377
		c0.5859-0.5835,1.5342-0.5835,2.1191,0.002L16.5,12.1787l9.5391-9.5391c0.585-0.5854,1.5322-0.5859,2.1191-0.0024
		C31.2803,5.7476,33,9.8892,33,14.2998C33,23.3975,25.5977,30.7998,16.5,30.7998z M5.9561,5.8774C4.0405,8.2578,3,11.1978,3,14.2998
		c0,7.4443,6.0562,13.5,13.5,13.5c7.4443,0,13.5-6.0557,13.5-13.5c0-3.1025-1.04-6.0425-2.9561-8.4224l-9.4834,9.4829
		c-0.5859,0.5859-1.5352,0.5859-2.1211,0L5.9561,5.8774z"/>
</g>
</svg>
