<?xml version="1.0" encoding="utf-8"?>
<!-- Generator: Adobe Illustrator 19.2.1, SVG Export Plug-In . SVG Version: 6.00 Build 0)  -->
<svg version="1.1" id="Layer_1" xmlns="http://www.w3.org/2000/svg" xmlns:xlink="http://www.w3.org/1999/xlink" x="0px" y="0px"
	 viewBox="0 0 33 33" enable-background="new 0 0 33 33" xml:space="preserve">
<path d="M21.7937,1.9634c-1.7023-0.615-3.4834-0.9271-5.2937-0.9271c-8.5267,0-15.4637,6.937-15.4637,15.4637
	c0,2.3111,0.5196,4.5791,1.5011,6.6345l-2.5374,0.0047l7.4293,5.7054l-1.3087-9.2758L4.9441,21.64
	c-0.7159-1.6023-1.0962-3.354-1.0962-5.14c0-6.9763,5.6758-12.6521,12.6521-12.6521c1.4836,0,2.9434,0.2558,4.3382,0.7596
	c0.7285,0.264,1.5367-0.1149,1.8003-0.8443C22.902,3.0334,22.524,2.2275,21.7937,1.9634z"/>
<path d="M33,9.8608l-7.4294-5.7053l1.3088,9.2758l1.1764-2.0709c0.7163,1.6028,1.0963,3.3544,1.0963,5.1397
	c0,6.9768-5.6753,12.6521-12.6521,12.6521c-1.484,0-2.9434-0.2553-4.3377-0.7596c-0.7299-0.2663-1.5362,0.1126-1.8003,0.8438
	c-0.264,0.7294,0.1139,1.5357,0.8438,1.7993c1.7019,0.6159,3.4829,0.928,5.2941,0.928c8.5263,0,15.4637-6.9374,15.4637-15.4637
	c0-2.3107-0.5196-4.579-1.5009-6.6345L33,9.8608z"/>
<path fill="none" stroke="#000000" stroke-width="3" stroke-linecap="round" stroke-linejoin="round" stroke-miterlimit="10" d="
	M28.6714,9.4711"/>
<path fill="none" stroke="#000000" stroke-width="3" stroke-linecap="round" stroke-linejoin="round" stroke-miterlimit="10" d="
	M4.3286,23.5289"/>
<path fill="none" stroke="#000000" stroke-width="3" stroke-linecap="round" stroke-linejoin="round" stroke-miterlimit="10" d="
	M21.316,3.2856"/>
<path fill="none" stroke="#000000" stroke-width="3" stroke-linecap="round" stroke-linejoin="round" stroke-miterlimit="10" d="
	M11.684,29.7144"/>
</svg>
