<?xml version="1.0" encoding="utf-8"?>
<!-- Generator: Adobe Illustrator 19.2.1, SVG Export Plug-In . SVG Version: 6.00 Build 0)  -->
<svg version="1.1" id="Layer_1" xmlns="http://www.w3.org/2000/svg" xmlns:xlink="http://www.w3.org/1999/xlink" x="0px" y="0px"
	 viewBox="0 0 33 33" enable-background="new 0 0 33 33" xml:space="preserve">
<path d="M32.5762,30.4551l-8.2311-8.2316c1.8827-2.3451,3.0163-5.3162,3.0163-8.5506c0-7.5479-6.1406-13.6885-13.6885-13.6885
	S-0.0156,6.125-0.0156,13.6729S6.125,27.3613,13.6729,27.3613c3.2345,0,6.2057-1.1337,8.5509-3.0165l8.2313,8.2313
	c0.293,0.293,0.6768,0.4395,1.0605,0.4395s0.7676-0.1465,1.0605-0.4395C33.1621,31.9902,33.1621,31.041,32.5762,30.4551z
	 M2.9844,13.6729c0-5.8936,4.7949-10.6885,10.6885-10.6885s10.6885,4.7949,10.6885,10.6885s-4.7949,10.6885-10.6885,10.6885
	S2.9844,19.5664,2.9844,13.6729z"/>
</svg>
